<svg id="图层_1" data-name="图层 1" xmlns="http://www.w3.org/2000/svg" viewBox="0 0 512 512"><defs><style>.cls-1{fill:#1969ff;}.cls-2,.cls-3{fill:#fff;}.cls-3{stroke:#000;stroke-miterlimit:10;stroke-width:3px;}.cls-4{fill:#080808;}.cls-5{fill:#0d0d0d;}.cls-6{fill:#0e0e0e;}.cls-7{fill:#010101;}.cls-8{fill:#030303;}</style></defs><circle class="cls-1" cx="256" cy="256" r="246.29"/><path class="cls-2" d="M71.19,160.12l-6.5,14.55c.44.9.85,1.75,1.24,2.57s.8,1.69,1.26,2.64l7.82,3.5,8-18,4.4,2-8,18L96.61,193l-2,4.4-31-13.83-4.33-8.8,7.43-16.64Z"/><path class="cls-2" d="M105.6,172.57,87.4,160.06l-8.15-22.53,2.73-4,24-.44,18.2,12.52-2.74,4-10.74-7.38-13.06,19,10.74,7.39ZM104.5,138l-19.71.43q1.71,4.77,3.3,9.26t3.34,9.3l2.19,1.5,13.07-19Z"/><path class="cls-2" d="M126.24,143.25,97.54,113.5l5.08-4.9,37.66,12.62L115.82,95.86l3.47-3.35L148,122.25l-5.08,4.91-37.67-12.63,24.47,25.36Z"/><path class="cls-2" d="M159.48,114.58,139.27,84.11l-9.91,6.57-2.67-4,23.78-15.78,2.67,4-9.85,6.54,20.22,30.47Z"/><path class="cls-2" d="M181.37,101.67l-9.52-3.88L161.5,73.54l3.58-9.93,15.21-6.48,9.63,4.28,10.35,24.26-3.8,9.56ZM192.8,91.55l2.27-5.76L186.21,65l-5.86-2.68L168.8,67.27l-1,3c-.33,1-.69,2-1.1,3.09l8.85,20.76,5.73,2.35Z"/><path class="cls-2" d="M236.36,85.4l-5.87-31.2c-.76-.75-1.45-1.42-2.07-2l-2.21-2.1-6.46,1.22,6.77,35.93-4.74.89L215,52.21l-6.52,1.23L206,58.81,211.87,90l-4.74.89L201,58.23l4.13-9.07,22.71-4.28L235,51.83l6.16,32.67Z"/><path class="cls-2" d="M274.77,85.27l7.66-40.67,19.75,3.72,5.67,5.73L304.6,71.31l-7.37,3.28-15-2.83-2.72,14.41Zm21.75-15.73c.68-.32,1.29-.59,1.84-.79s1.2-.48,2-.83l2.32-12.27c-.48-.5-1-1-1.43-1.4s-1-.94-1.53-1.49l-13.4-2.53L283.12,67Z"/><path class="cls-2" d="M303.61,90.67l8.1-20.54,20.12-13,4.49,1.77,5.82,23.24L334,102.67l-4.49-1.77,4.79-12.13-21.45-8.45L308.1,92.45Zm33.46-8.86-4.86-19.1L323.93,68q-4,2.56-8.31,5.35l-1,2.47,21.45,8.45Z"/><path class="cls-2" d="M336.87,104.21l22.59-34.62,5.91,3.87L361.47,113l19.26-29.51,4,2.64-22.6,34.61-5.91-3.86,3.9-39.54-19.26,29.52Z"/><path class="cls-2" d="M394,93.54l16.58,16.27.22,10.54L391.9,139.64l-10.33-.33L365,123.07ZM371.86,123l11.71,11.5,3.14,0c1,0,2.08.05,3.31.13L406,118.43c0-1.24,0-2.33-.1-3.26s-.08-2-.09-3.35L394.1,100.36Z"/><path class="cls-2" d="M388.94,146.82l18.31-12.35,24,.66,2.69,4-8.36,22.45-18.31,12.35-2.7-4,10.81-7.29-12.89-19.11-10.81,7.29Zm32.6,11.64,6.81-18.5-9.82-.32c-3.18-.12-6.48-.21-9.88-.29l-2.2,1.48,12.89,19.11Z"/><path class="cls-2" d="M450.88,182.61l-7.06-16-2.64-.75-8.39,3.71-1.37,2.58,5.72,13-3,6.21-11,4.84-6.95-1.41-8.09-18.34,4.42-1.94,7.06,16c.48.09,1,.2,1.43.32s1,.23,1.57.33l8.06-3.55,1.17-2.56-5.74-13,3.21-6.17,11.54-5.09,6.52,1.94,7.94,18Z"/><path class="cls-2" d="M256,444.39C152.12,444.39,67.61,359.88,67.61,256a189.8,189.8,0,0,1,5-43.49,1.35,1.35,0,0,1,1.65-1,1.36,1.36,0,0,1,1,1.65,186.45,186.45,0,0,0-5,42.85c0,102.37,83.28,185.65,185.65,185.65S441.65,358.37,441.65,256a186.78,186.78,0,0,0-4.24-39.6,1.37,1.37,0,0,1,2.68-.57,189.33,189.33,0,0,1,4.3,40.17C444.39,359.88,359.88,444.39,256,444.39Z"/><path class="cls-3" d="M341.62,183.68c31.63,45,61.63,106.63,55.14,121.63S381,326.74,379.33,330.38l-.07,1.34c-31.14,44.42-75.51,72.22-124.78,72.22-48.54,0-92.31-27-123.37-70.25l-.39-3.31c-2.26-3.83-6.75-5.06-11.5-12.24a36.71,36.71,0,0,1-3.81-27.26c3.81-15.85,35.51-97,69.11-126.17,5.55-4.82,10.35-8.93,14.61-12.44a60,60,0,0,1,11.07-8.81l5.72-3.3s10-6.53,19.76-21c0,0-9.08,18.8-2.39,19.29s23.06-6.33,11.5-19.29a92.91,92.91,0,0,0-12.42-11.08s30.31,6.24,31.18,23.28S271,115.52,271,115.52s11.58,13.26,7.93,18.73c0,0,11.66,1.23,16.39-5.56,0,0,1.57,8.82-2,10.79A75.87,75.87,0,0,1,305,146.14C325.79,158.26,341.62,183.68,341.62,183.68Z"/><path d="M194.69,155.23s-26.24-23.94-53.27,4.28c0,0-20.3,23.79,7.47,54.36L168.81,182Z"/><path class="cls-2" d="M187,157.15S168.2,143,150,158.81c0,0-7.46,7-7.74,12.49,0,0,8.61-15.63,19.1-17.11C174.29,150,187,157.15,187,157.15Z"/><path class="cls-2" d="M184,158.6a25.51,25.51,0,0,0-28.77,1.7S169.56,152,184,158.6Z"/><path d="M317.67,155.07s25.15-23.14,52.18,5.08c0,0,20.3,23.79-7.46,54.36l-21.3-31.58Z"/><path class="cls-2" d="M324.29,157.8s18.79-14.18,37,1.65c0,0,7.46,7,7.74,12.49,0,0-8.61-15.63-19.09-17.11C337,150.68,324.29,157.8,324.29,157.8Z"/><path class="cls-2" d="M327.26,159.25A25.51,25.51,0,0,1,356,160.94S341.71,152.62,327.26,159.25Z"/><path class="cls-4" d="M255.16,317.72s-10.91-4.49-10.35-14,12.34-9.69,18.72-9.84,13.11,2,11.78,8.21-6.53,13.57-10.4,15.25c-.41.41-.26,1.28.66,1.94s2.55,3.72,2.6,6.88c0,0-2.24-4.69-6-6.73a3.32,3.32,0,0,0-2.89-1A12.56,12.56,0,0,1,255.16,317.72Z"/><path class="cls-5" d="M176.44,251s-2.55,25.38,19.36,39,36.51-1.65,36.51-8.24a109.25,109.25,0,0,1,1-13.43l-8.24-12.11s-5.52-9.39-5.76-9.81-12.45-9.72-12.45-9.72l-11.94-1.73-7.09,1.4Z"/><path class="cls-6" d="M274,259.46s10.05,5.73,11.21,16.45c.44,9.82-4,15.87-4,15.87s10.58-16.14,29.39-16.63,23.17-.62,23.17-.62,11.65-22.45,1-31.52S310,232.38,310,232.38l-3.29,2.14-4,9-4.54,9.07-7.26,6.22-7.79,1.83-6.32-1.08Z"/><path class="cls-7" d="M248.35,284.29s3.46-5.6,12.14-5c1.93.09,5.87,1.48,7.12,3.41a16,16,0,0,0-8.94-2.53c-4.83.29-9.72,4.1-10.56,5.19A1.16,1.16,0,0,1,248.35,284.29Z"/><path class="cls-2" d="M248.08,302.5a14.15,14.15,0,0,1,10.27-6.66c7-.76,9.37,0,11.92,1.61C270.27,297.45,256.52,293.94,248.08,302.5Z"/><path class="cls-4" d="M271,346.57a23.09,23.09,0,0,1,14.78-14.92c12.14-4.24,16.38,0,16.38,0s-11.95-1.18-18.77,2.86S271,346.57,271,346.57Z"/><path class="cls-2" d="M215.57,245.48s-10.88-.78-12.43,9.14,3.56,13.86,12.43,15.16S229,263,229,263Z"/><path class="cls-7" d="M171.79,266.45s.29-40.69,28.51-34.45c8.32,1.63,16,3.56,27.93,25.54s19.75,10.1,19.45,6.83-2.19-11.15-2.19-11.15,8.82,13.19-.74,19-17.8-9.56-20-13.27-15.57-24.72-30.89-20.52S171.79,266.45,171.79,266.45Z"/><path class="cls-2" d="M302.08,246.13s10.43,1.22,10.37,13.33-16.22,12.72-22.55,6.93-1.75-8.35-1.75-8.35a15.84,15.84,0,0,0,8.55-3.83A23.11,23.11,0,0,0,302.08,246.13Z"/><path class="cls-8" d="M281.78,243.75s-17.28,10.6-4.12,15,21.14-9.84,22.87-13,3.66-15,13.28-16.28,10.43,0,10.43,0-13.05-2.88-17.94,9.79-8.93,19-17.38,21.79-17.3-.44-18-4.44S273.85,244.36,281.78,243.75Z"/></svg>